<svg width="164" height="32" viewBox="0 0 164 32" fill="none" xmlns="http://www.w3.org/2000/svg">
<path d="M27.6397 31.9325H20.4234V19.038H10.5521V12.8945H20.4234V0.270038H27.6397V31.9325ZM142.964 30.3122V23.4262C144.189 24.4388 145.551 25.2489 147.049 25.789C148.546 26.3291 149.976 26.5992 151.474 26.5992C152.359 26.5992 153.108 26.5316 153.788 26.3966C154.469 26.2616 155.014 25.9916 155.422 25.7215C155.831 25.4515 156.171 25.1139 156.375 24.7764C156.579 24.3713 156.716 23.9662 156.716 23.5612C156.716 22.9536 156.579 22.4135 156.171 21.9409C155.831 21.4684 155.354 20.9958 154.741 20.6582C154.129 20.2532 153.448 19.8481 152.631 19.5105C151.814 19.1055 150.929 18.7679 149.976 18.3629C147.593 17.3502 145.755 16.135 144.598 14.7173C143.44 13.2996 142.828 11.5443 142.828 9.51899C142.828 7.89873 143.168 6.54852 143.781 5.40084C144.462 4.25317 145.279 3.30801 146.436 2.5654C147.525 1.82278 148.819 1.2827 150.316 0.945144C151.814 0.607591 153.312 0.405062 154.946 0.405062C156.579 0.405062 158.009 0.540084 159.235 0.675106C160.46 0.877637 161.617 1.14768 162.638 1.55274V7.96624C162.094 7.62869 161.549 7.29114 160.936 7.02109C160.324 6.75105 159.711 6.54852 159.03 6.34599C158.418 6.14346 157.737 6.00844 157.124 5.94093C156.511 5.87342 155.899 5.80591 155.286 5.80591C154.469 5.80591 153.788 5.87341 153.108 6.00844C152.427 6.14346 151.882 6.34599 151.474 6.61603C151.065 6.88607 150.657 7.22363 150.452 7.56118C150.18 7.96624 150.112 8.37131 150.112 8.84388C150.112 9.38397 150.248 9.78903 150.521 10.1941C150.793 10.5992 151.201 11.0042 151.678 11.3418C152.154 11.6793 152.767 12.0844 153.516 12.4219C154.197 12.7595 155.014 13.097 155.967 13.5021C157.192 14.0422 158.281 14.5823 159.303 15.1224C160.256 15.73 161.141 16.3376 161.822 17.0802C162.502 17.8228 163.047 18.6329 163.455 19.5781C163.864 20.5232 164 21.6034 164 22.8186C164 24.5063 163.66 25.9916 163.047 27.1392C162.366 28.2869 161.481 29.2321 160.392 29.9747C159.303 30.7173 157.941 31.1899 156.511 31.5274C155.014 31.865 153.448 32 151.814 32C150.112 32 148.478 31.865 146.98 31.5949C145.415 31.2574 144.053 30.8523 142.964 30.3122ZM118.728 0C123.153 0 127.238 1.75527 130.097 4.65822C133.024 7.56118 134.795 11.5443 134.795 15.9325C134.795 20.3207 132.956 24.3713 130.097 27.2068C127.17 30.1097 123.153 31.865 118.728 31.865C114.303 31.865 110.218 30.0422 107.359 27.2068C104.432 24.3038 102.662 20.3207 102.662 15.9325H110.218C110.218 18.2954 111.171 20.3882 112.737 21.9409C114.303 23.4937 116.413 24.4388 118.796 24.4388C121.179 24.4388 123.289 23.4937 124.855 21.9409C126.421 20.3882 127.374 18.2954 127.374 15.9325C127.374 13.5696 126.421 11.4768 124.855 9.92405C123.289 8.37131 121.179 7.42616 118.796 7.42616V0H118.728ZM7.21627 19.1055V23.1561V32H0V0.337553H7.21627V11.0042V12.962V19.1055ZM56.0963 31.9325H36.9664V0.270038H55.3475V6.07595H44.1827V13.097H54.5986V18.903H44.1827V26.1266H56.1644V31.9325H56.0963ZM82.2383 31.9325H63.2445V0.270038H70.4608V26.1266H82.3064V31.9325H82.2383ZM95.7177 31.9325H88.5014V0.270038H95.7177V31.9325Z" fill="#FEFEFE"/>
</svg>
