<svg width="1201" height="611" viewBox="0 0 1201 611" fill="none" xmlns="http://www.w3.org/2000/svg">
<path d="M78.1236 611.987C78.1236 611.987 -67.0067 466.204 53.5881 308.411C160.561 168.383 285.322 177.974 376.841 234.769C415.831 258.955 528.178 237.772 623.862 95.2827C754.288 -98.9976 1206.42 18.8466 1123.99 317.752C1084.08 462.409 1245.42 467.664 1163.23 612.279L78.1236 611.987Z" fill="#F6F8FF"/>
<path d="M891.92 550.855C891.92 550.772 892.378 541.348 887.838 539.179L888.171 538.887C890.254 539.596 892.545 541.848 893.461 545.059C894.128 547.436 893.628 547.936 893.628 548.02L891.92 550.855Z" fill="#A4C8FC"/>
<path d="M861.802 526.461C861.802 526.461 863.344 538.595 870.717 542.14C878.09 545.684 888.504 539.304 888.504 539.304C888.504 539.304 886.963 527.17 879.59 523.625C872.217 520.081 861.802 526.461 861.802 526.461Z" fill="#A4C8FC"/>
<path d="M891.17 568.494C891.087 568.036 889.462 556.943 893.628 544.6C897.668 532.716 895.419 522.666 895.419 522.583H898.377C898.46 523 898.668 532.883 895.502 546.435C892.67 558.611 897.96 568.536 896.835 568.536H891.17V568.494Z" fill="#A4C8FC"/>
<path d="M897.377 535.76C897.377 535.676 898.793 527.586 902.626 526.669C900.918 526.878 898.752 528.129 897.544 530.38C896.627 532.048 896.96 532.549 896.96 532.632L897.377 535.76Z" fill="#A4C8FC"/>
<path d="M909.582 536.594C903.876 535.426 900.71 527.378 900.71 527.378C900.71 527.378 906.75 521.206 912.457 522.332C918.164 523.5 921.329 531.548 921.329 531.548C921.329 531.548 915.289 537.761 909.582 536.594Z" fill="#A4C8FC"/>
<path d="M865.385 510.364C856.346 496.603 860.136 478.089 873.883 468.998C887.63 459.949 906.125 463.744 915.206 477.505C924.245 491.266 920.455 509.781 906.708 518.83C892.962 527.92 874.466 524.125 865.385 510.364Z" fill="#FFB93E"/>
<path d="M905.458 516.953C899.418 520.956 892.128 522.332 885.047 520.873C877.924 519.413 871.842 515.243 867.843 509.197C863.844 503.15 862.469 495.853 863.927 488.764C865.385 481.633 869.551 475.545 875.591 471.542C881.631 467.538 888.921 466.162 896.002 467.622C903.084 469.081 909.207 473.251 913.206 479.298C917.205 485.344 918.58 492.642 917.122 499.731C915.664 506.82 911.498 512.95 905.458 516.953ZM876.466 472.876C864.719 480.632 861.428 496.52 869.176 508.279C876.924 520.039 892.795 523.333 904.542 515.577C916.289 507.821 919.58 491.933 911.832 480.174C904.084 468.414 888.213 465.12 876.466 472.876Z" fill="#FFA412"/>
<path d="M897.96 498.772C897.71 498.23 897.377 497.813 897.044 497.479C896.711 497.146 896.252 496.895 895.753 496.77C895.253 496.603 894.669 496.52 894.003 496.52C893.336 496.52 892.545 496.562 891.629 496.687C890.087 496.895 888.629 497.02 887.296 497.02C885.963 497.062 884.755 496.937 883.63 496.645C882.506 496.353 881.548 495.895 880.673 495.227C879.798 494.56 879.048 493.601 878.423 492.35C877.882 491.266 877.59 490.223 877.549 489.139C877.507 488.055 877.632 487.012 878.007 486.012C878.382 485.011 878.965 484.052 879.715 483.134C880.506 482.217 881.464 481.425 882.631 480.716L880.631 476.671L883.88 475.045L885.922 479.131C887.171 478.714 888.379 478.464 889.546 478.464C890.712 478.464 891.837 478.673 892.878 479.048C893.92 479.465 894.878 480.09 895.711 480.924C896.586 481.758 897.336 482.801 897.96 484.052L892.087 486.971C891.337 485.47 890.42 484.51 889.379 484.093C888.338 483.676 887.255 483.76 886.13 484.302C885.505 484.594 885.047 484.969 884.672 485.344C884.297 485.72 884.089 486.137 883.922 486.595C883.797 487.054 883.755 487.471 883.797 487.972C883.88 488.43 884.005 488.889 884.255 489.389C884.505 489.848 884.755 490.223 885.088 490.557C885.422 490.849 885.838 491.099 886.297 491.266C886.796 491.433 887.38 491.516 888.088 491.516C888.796 491.516 889.587 491.474 890.545 491.391C892.087 491.224 893.545 491.141 894.878 491.099C896.211 491.057 897.419 491.224 898.544 491.474C899.668 491.766 900.626 492.225 901.501 492.934C902.376 493.601 903.126 494.56 903.709 495.769C904.251 496.895 904.584 497.98 904.625 499.022C904.667 500.106 904.5 501.149 904.126 502.108C903.751 503.109 903.167 504.026 902.334 504.943C901.543 505.819 900.543 506.653 899.377 507.362L901.251 511.115L898.044 512.741L896.169 508.988C895.003 509.447 893.795 509.739 892.545 509.906C891.295 510.073 890.087 509.989 888.921 509.656C887.755 509.364 886.671 508.78 885.63 507.946C884.589 507.112 883.714 505.944 882.964 504.443L888.838 501.524C889.296 502.4 889.796 503.109 890.337 503.567C890.879 504.026 891.462 504.36 892.045 504.485C892.628 504.652 893.253 504.652 893.836 504.526C894.461 504.401 895.003 504.193 895.586 503.943C896.211 503.609 896.752 503.275 897.127 502.858C897.544 502.441 897.794 502.024 898.002 501.566C898.169 501.107 898.252 500.648 898.21 500.19C898.335 499.689 898.21 499.231 897.96 498.772Z" fill="#FFA412"/>
<path d="M920.954 565.617L920.371 574.791L918.163 608.735H876.882L874.466 575.25L873.8 566.034L873.758 565.617H920.954Z" fill="#B4C9F7"/>
<path d="M920.954 565.617L920.371 574.749C917.247 573.665 908.624 571.08 897.377 571.08C883.172 571.08 874.466 575.25 874.466 575.25L873.8 566.034L920.954 565.617Z" fill="#9BB8EA"/>
<path d="M922.371 570.454H872.258L871.675 564.616H923.037L922.371 570.454Z" fill="#B4C9F7"/>
<path d="M918.469 611H876.491L876 608H919L918.469 611Z" fill="#9BB8EA"/>
<path d="M754.621 430.676C754.621 430.426 755.996 402.07 742.333 395.523L743.291 394.605C749.539 396.815 756.496 403.571 759.287 413.12C761.37 420.209 759.787 421.794 759.787 422.044L754.621 430.676Z" fill="#A4C8FC"/>
<path d="M718.88 374.506C718.88 374.506 717.297 389.101 724.962 395.314C732.585 401.527 746.54 396.982 746.54 396.982C746.54 396.982 748.123 382.387 740.458 376.174C732.835 369.961 718.88 374.506 718.88 374.506Z" fill="#A4C8FC"/>
<path d="M752.288 483.843C752.038 482.426 747.081 449.024 759.703 411.786C771.825 376.007 765.119 345.691 765.077 345.399H773.991C774.241 346.692 774.824 376.466 765.327 417.248C756.787 453.944 772.742 483.843 769.368 483.843H752.288Z" fill="#A4C8FC"/>
<path d="M771.034 385.264C771.075 385.056 775.324 360.62 786.821 357.826C781.698 358.493 775.199 362.163 771.534 369.001C768.826 374.089 769.784 375.507 769.742 375.715L771.034 385.264Z" fill="#A4C8FC"/>
<path d="M725.17 320.338C725.17 320.338 712.798 302.865 698.76 297.736C698.76 297.736 704.009 338.727 696.344 339.228C688.679 339.728 693.803 293.107 693.803 293.107C693.803 293.107 657.229 272.758 642.357 273.342C642.357 273.342 663.394 314.291 655.812 312.915C648.231 311.497 624.362 269.922 624.362 269.922C624.362 269.922 586.163 260.498 578.665 283.058C571.125 305.576 580.456 317.627 586.122 319.378C591.745 321.13 628.486 322.84 627.236 327.552C625.987 332.264 600.785 338.435 587.205 333.348C587.205 333.348 600.243 371.921 620.363 371.212C640.483 370.461 647.398 358.451 659.853 358.201C672.308 357.993 681.139 361.829 674.766 364.831C668.393 367.792 647.523 364.331 637.026 372.254C626.528 380.177 618.114 384.973 636.484 389.851C654.854 394.73 682.556 389.226 695.719 380.427C695.761 380.386 706.466 379.552 714.923 429.258C718.172 448.44 715.672 476.879 715.672 476.879L722.504 475.837C726.295 420.084 706.175 373.755 706.175 373.755C706.175 373.755 740.25 348.527 725.17 320.338Z" fill="#A4C8FC"/>
<path d="M836.642 393.896C836.642 393.896 795.569 376.633 810.274 345.191C810.274 345.191 822.646 325.508 837.6 319.128C837.6 319.128 834.31 363.872 842.682 363.997C851.055 364.123 842.766 313.874 842.766 313.874C842.766 313.874 881.256 289.688 897.377 289.396C897.377 289.396 876.965 335.058 885.088 333.098C893.211 331.138 916.622 284.601 916.622 284.601C916.622 284.601 957.445 272.132 966.943 296.11C976.441 320.087 967.026 333.682 961.028 335.933C955.029 338.185 915.289 342.147 916.914 347.192C918.538 352.238 946.24 357.451 960.653 351.112C960.653 351.112 948.781 393.73 926.911 394.105C905.042 394.48 896.836 381.845 883.339 382.345C869.842 382.846 860.47 387.558 867.551 390.394C874.674 393.229 897.044 388.267 908.916 396.232C920.788 404.196 930.161 408.908 910.54 415.288C890.92 421.669 854.596 423.211 845.598 408.533C836.642 393.896 836.642 393.896 836.642 393.896Z" fill="#D2E3FC"/>
<path d="M948.781 305.993C948.781 305.993 844.599 353.322 836.642 393.896C836.642 393.896 839.142 411.369 830.602 432.719L831.477 440.434C831.477 440.434 839.85 412.87 845.598 408.533C845.598 408.575 817.564 377.258 948.781 305.993Z" fill="#A4C8FC"/>
<path d="M830.602 432.719C830.602 432.719 816.772 459.949 829.769 489.765L833.935 488.138C833.935 488.138 825.937 454.612 832.727 436.514C839.516 418.416 830.602 432.719 830.602 432.719Z" fill="#A4C8FC"/>
<path d="M680.056 206.747C696.885 224.678 688.138 260.29 688.138 260.29C688.138 260.29 652.063 266.837 635.234 248.906C618.405 230.975 627.153 195.363 627.153 195.363C627.153 195.363 663.186 188.816 680.056 206.747Z" fill="#A4C8FC"/>
<path d="M680.056 206.747C696.885 224.678 688.138 260.29 688.138 260.29L627.153 195.363C627.153 195.363 663.185 188.816 680.056 206.747Z" fill="#D2E3FC"/>
<path d="M897.169 275.051C888.379 285.226 868.551 282.516 868.551 282.516C868.551 282.516 862.927 263.25 871.717 253.075C880.506 242.901 900.335 245.611 900.335 245.611C900.335 245.611 905.958 264.877 897.169 275.051Z" fill="#A4C8FC"/>
<path d="M793.32 364.707C787.446 366.333 780.615 360.286 780.615 360.286C780.615 360.286 783.364 351.571 789.237 349.945C795.111 348.318 801.943 354.365 801.943 354.365C801.943 354.365 799.235 363.039 793.32 364.707Z" fill="#A4C8FC"/>
<path d="M689.304 173.512C693.345 183.103 684.639 195.905 684.639 195.905C684.639 195.905 669.392 193.194 665.352 183.603C661.311 174.012 670.017 161.21 670.017 161.21C670.017 161.21 685.305 163.921 689.304 173.512Z" fill="#A4C8FC"/>
<path d="M833.922 318.091C869.012 282.965 869.012 226.014 833.922 190.888C798.833 155.762 741.942 155.762 706.853 190.888C671.764 226.014 671.764 282.965 706.853 318.091C741.942 353.217 798.833 353.217 833.922 318.091Z" fill="#E2810E"/>
<path d="M826.304 319.045C861.421 283.947 861.421 227.041 826.304 191.943C791.186 156.845 734.25 156.845 699.133 191.943C664.015 227.041 664.015 283.947 699.133 319.045C734.25 354.143 791.186 354.143 826.304 319.045Z" fill="#FFB93E"/>
<path d="M772.992 337.852C751.289 340.604 729.836 334.682 712.59 321.297C695.303 307.869 684.305 288.52 681.556 266.795C678.807 245.069 684.722 223.594 698.094 206.33C711.507 189.024 730.835 178.015 752.538 175.263C774.241 172.511 795.694 178.432 812.94 191.818C830.227 205.246 841.224 224.594 843.974 246.32C846.723 268.046 840.808 289.521 827.436 306.785C813.981 324.091 794.653 335.099 772.992 337.852ZM753.121 180.1C711.007 185.396 681.056 224.011 686.388 266.169C691.679 308.328 730.252 338.31 772.367 332.973C814.481 327.677 844.432 289.063 839.1 246.904C833.81 204.745 795.236 174.805 753.121 180.1Z" fill="#FFA412"/>
<path d="M776.907 278.721C776.907 276.928 776.616 275.385 776.116 274.009C775.616 272.674 774.783 271.423 773.616 270.339C772.45 269.255 770.992 268.254 769.201 267.337C767.41 266.419 765.202 265.544 762.577 264.668C758.12 263.125 754.038 261.499 750.372 259.831C746.706 258.121 743.582 256.203 740.958 253.951C738.333 251.741 736.292 249.114 734.834 246.112C733.376 243.109 732.627 239.523 732.585 235.395C732.543 231.808 733.168 228.514 734.418 225.512C735.667 222.551 737.459 219.924 739.833 217.714C742.166 215.504 744.998 213.669 748.289 212.293C751.58 210.875 755.288 209.999 759.37 209.582L759.287 195.988L770.242 195.905L770.325 209.707C774.241 210.208 777.824 211.209 780.989 212.752C784.197 214.294 786.905 216.296 789.154 218.798C791.404 221.3 793.153 224.219 794.361 227.638C795.611 231.058 796.236 234.853 796.236 239.106L776.491 239.231C776.449 234.144 775.283 230.349 773.033 227.847C770.742 225.345 767.743 224.094 763.952 224.136C761.911 224.136 760.12 224.469 758.662 225.053C757.204 225.637 755.954 226.429 755.038 227.43C754.08 228.431 753.371 229.598 752.955 230.974C752.497 232.351 752.288 233.81 752.288 235.353C752.288 236.938 752.538 238.355 752.996 239.606C753.455 240.857 754.246 242.025 755.371 243.109C756.496 244.193 757.995 245.194 759.828 246.112C761.661 247.071 763.994 248.03 766.701 249.031C771.117 250.657 775.158 252.325 778.782 254.035C782.406 255.744 785.53 257.746 788.154 259.956C790.779 262.208 792.82 264.835 794.278 267.837C795.736 270.84 796.486 274.384 796.527 278.512C796.569 282.224 795.944 285.601 794.653 288.562C793.361 291.523 791.57 294.108 789.196 296.277C786.821 298.445 783.989 300.196 780.656 301.531C777.324 302.865 773.616 303.741 769.492 304.158L769.576 316.793L758.703 316.876L758.62 304.283C754.829 303.949 751.164 303.115 747.623 301.864C744.082 300.613 740.958 298.82 738.167 296.443C735.418 294.067 733.21 291.064 731.544 287.436C729.877 283.808 729.044 279.43 729.002 274.342L748.748 274.217C748.789 277.22 749.206 279.722 750.081 281.723C750.955 283.725 752.08 285.351 753.496 286.519C754.913 287.728 756.537 288.562 758.328 289.021C760.12 289.48 761.953 289.73 763.827 289.73C765.952 289.73 767.826 289.438 769.451 288.854C771.075 288.312 772.408 287.52 773.491 286.519C774.574 285.518 775.408 284.392 775.907 283.058C776.657 281.765 776.907 280.306 776.907 278.721Z" fill="#FFA412"/>
<path d="M842.058 475.17V475.253L840.266 502.775L833.601 605.065H709.299L701.968 504.193L699.926 476.379L699.843 475.17H842.058Z" fill="#739AF0"/>
<path d="M842.058 475.253L840.266 502.817C830.894 499.564 804.858 491.683 770.95 491.683C728.128 491.683 701.968 504.193 701.968 504.193L699.968 476.379L842.058 475.253Z" fill="#618DD8"/>
<path d="M846.39 489.723H695.344L693.595 472.167H848.306L846.39 489.723Z" fill="#739AF0"/>
<path d="M835.334 611H706.457L705 604H837L835.334 611Z" fill="#618DD8"/>
<path d="M612.532 553.566C612.407 552.94 610.199 537.886 615.864 521.165C621.321 505.069 618.28 491.433 618.28 491.308H622.279C622.363 491.891 622.654 505.277 618.405 523.625C614.573 540.138 621.738 553.566 620.196 553.566H612.532Z" fill="#A4C8FC"/>
<path d="M620.946 509.197C620.988 509.113 622.904 498.105 628.028 496.854C625.737 497.146 622.779 498.814 621.154 501.899C619.946 504.193 620.363 504.818 620.321 504.943L620.946 509.197Z" fill="#A4C8FC"/>
<path d="M611.407 506.612C611.407 506.612 606.367 498.397 600.201 495.686C600.201 495.686 601.368 514.243 597.91 514.243C594.453 514.243 598.077 493.476 598.077 493.476C598.077 493.476 582.248 483.301 575.541 483.093C575.541 483.093 583.789 502.108 580.456 501.232C577.082 500.398 567.585 481.008 567.585 481.008C567.585 481.008 550.714 475.67 546.673 485.553C542.633 495.436 546.465 501.107 548.964 502.066C551.422 503.025 567.876 504.818 567.168 506.903C566.46 508.988 554.963 511.032 549.048 508.321C549.048 508.321 553.796 526.002 562.836 526.252C571.875 526.502 575.333 521.29 580.956 521.582C586.538 521.832 590.412 523.834 587.455 525.001C584.497 526.169 575.249 524 570.292 527.253C565.335 530.506 561.42 532.424 569.542 535.134C577.624 537.887 590.246 536.177 596.411 532.632C596.411 532.632 601.285 532.549 603.617 555.109C604.534 563.824 602.576 576.501 602.576 576.501L605.658 576.25C608.949 551.356 601.285 529.964 601.285 529.964C601.285 529.964 617.364 519.705 611.407 506.612Z" fill="#A4C8FC"/>
<path d="M630.985 499.94C628.319 500.69 625.278 497.938 625.278 497.938C625.278 497.938 626.486 494.018 629.152 493.309C631.818 492.6 634.859 495.311 634.859 495.311C634.859 495.311 633.61 499.231 630.985 499.94Z" fill="#A4C8FC"/>
<path d="M661.436 440.142C652.188 446.188 652.272 462.701 652.272 462.701C652.272 462.701 667.351 469.373 676.599 463.285C685.847 457.239 685.763 440.726 685.763 440.726C685.763 440.726 670.684 434.095 661.436 440.142Z" fill="#A4C8FC"/>
<path d="M661.436 440.142C652.188 446.188 652.272 462.701 652.272 462.701L685.763 440.725C685.763 440.767 670.684 434.095 661.436 440.142Z" fill="#D2E3FC"/>
<path d="M660.895 424.629C658.104 428.382 660.561 434.929 660.561 434.929C660.561 434.929 667.518 435.346 670.309 431.593C673.1 427.84 670.642 421.293 670.642 421.293C670.642 421.293 663.686 420.876 660.895 424.629Z" fill="#A4C8FC"/>
<path d="M649.293 478.98C665.085 463.197 665.085 437.607 649.293 421.823C633.501 406.04 607.897 406.04 592.104 421.823C576.312 437.607 576.312 463.197 592.104 478.98C607.897 494.764 633.501 494.764 649.293 478.98Z" fill="#E2810E"/>
<path d="M619.803 491.194C642.072 489.739 658.946 470.488 657.493 448.196C656.039 425.903 636.808 409.011 614.539 410.466C592.27 411.921 575.396 431.172 576.849 453.465C578.303 475.757 597.534 492.649 619.803 491.194Z" fill="#FFB93E"/>
<path d="M621.821 487.888C612.073 489.097 602.409 486.47 594.661 480.424C586.913 474.377 581.956 465.704 580.706 455.904C579.498 446.146 582.123 436.472 588.163 428.716C594.203 420.96 602.909 415.997 612.657 414.746C622.404 413.537 632.068 416.164 639.816 422.211C647.564 428.257 652.522 436.972 653.771 446.73C655.021 456.488 652.355 466.162 646.315 473.919C640.275 481.675 631.568 486.637 621.821 487.888ZM612.906 416.915C593.953 419.292 580.498 436.681 582.872 455.612C585.247 474.586 602.617 488.055 621.529 485.678C640.483 483.301 653.938 465.912 651.563 446.98C649.189 428.007 631.818 414.538 612.906 416.915Z" fill="#FFA412"/>
<path d="M623.571 461.284C623.571 460.491 623.446 459.782 623.237 459.157C622.988 458.531 622.654 457.989 622.113 457.489C621.613 456.989 620.946 456.53 620.113 456.113C619.28 455.696 618.322 455.279 617.156 454.904C615.156 454.195 613.323 453.486 611.657 452.735C609.991 451.985 608.616 451.109 607.408 450.108C606.242 449.107 605.325 447.94 604.659 446.564C603.992 445.229 603.659 443.603 603.659 441.726C603.659 440.1 603.909 438.641 604.492 437.306C605.075 435.972 605.867 434.804 606.908 433.803C607.95 432.803 609.241 432.01 610.699 431.343C612.198 430.718 613.823 430.301 615.698 430.134L615.656 424.004L620.571 423.962L620.613 430.175C622.363 430.384 623.987 430.843 625.404 431.552C626.862 432.26 628.07 433.136 629.069 434.262C630.069 435.388 630.861 436.722 631.402 438.224C631.944 439.766 632.235 441.476 632.235 443.394L623.362 443.478C623.362 441.184 622.821 439.475 621.821 438.349C620.78 437.223 619.447 436.681 617.739 436.681C616.822 436.681 616.031 436.806 615.364 437.098C614.698 437.348 614.156 437.723 613.74 438.182C613.323 438.641 612.99 439.183 612.782 439.766C612.573 440.392 612.49 441.017 612.49 441.726C612.49 442.435 612.615 443.061 612.823 443.645C613.032 444.228 613.407 444.729 613.906 445.229C614.406 445.73 615.073 446.147 615.906 446.605C616.739 447.022 617.78 447.481 618.988 447.898C620.988 448.607 622.779 449.357 624.445 450.15C626.07 450.9 627.486 451.818 628.653 452.819C629.819 453.819 630.736 455.029 631.402 456.363C632.069 457.697 632.402 459.324 632.402 461.159C632.402 462.827 632.152 464.328 631.569 465.662C630.986 466.997 630.194 468.164 629.111 469.123C628.07 470.082 626.778 470.875 625.279 471.5C623.779 472.084 622.113 472.501 620.28 472.668L620.322 478.339L615.448 478.381L615.406 472.709C613.698 472.543 612.074 472.209 610.449 471.625C608.866 471.083 607.45 470.249 606.2 469.165C604.95 468.081 603.951 466.746 603.201 465.12C602.451 463.494 602.076 461.534 602.034 459.24L610.907 459.157C610.907 460.491 611.115 461.659 611.49 462.535C611.865 463.452 612.407 464.161 613.032 464.703C613.656 465.245 614.406 465.62 615.198 465.829C615.989 466.037 616.822 466.163 617.655 466.121C618.614 466.121 619.447 465.996 620.197 465.746C620.905 465.495 621.53 465.162 622.029 464.703C622.529 464.244 622.863 463.744 623.112 463.118C623.487 462.66 623.571 461.993 623.571 461.284Z" fill="#FFA412"/>
<path d="M652.897 549.646V549.688L652.105 562.072L649.106 608.068H593.161L589.871 562.698L588.954 550.188L588.912 549.646H652.897Z" fill="#B4C9F7"/>
<path d="M652.897 549.688L652.105 562.072C647.898 560.613 636.192 557.068 620.946 557.068C601.701 557.068 589.912 562.698 589.912 562.698L588.996 550.188L652.897 549.688Z" fill="#9BB8EA"/>
<path d="M654.854 556.193H586.913L586.122 548.311H655.688L654.854 556.193Z" fill="#B4C9F7"/>
<path d="M650.243 611H591.673L591 608H651L650.243 611Z" fill="#9BB8EA"/>
<path d="M883.339 374.047C883.339 374.047 876.965 372.796 875.507 374.047C874.049 375.298 867.135 382.345 868.593 384.639C870.092 386.932 877.174 382.721 878.673 382.345C880.173 381.97 884.297 380.344 884.297 380.344L883.339 374.047Z" fill="#FFB27D"/>
<path d="M951.239 600.103L958.07 602.647C958.07 602.647 987.813 561.364 991.478 525.043C992.145 518.538 991.895 512.283 990.52 506.486C990.52 506.486 990.812 504.818 991.312 501.899C991.562 500.523 991.853 498.897 992.187 496.979C993.145 491.433 994.478 483.843 996.019 475.211C999.518 455.32 1004.06 429.925 1007.56 411.244L1005.72 410.66L985.772 404.196L981.648 391.061L966.776 387.141C966.776 387.141 963.444 393.646 960.486 424.337C959.945 428.382 959.445 432.802 959.07 437.64C957.904 452.36 957.82 470.583 960.486 491.433C961.153 496.77 962.027 502.275 963.111 507.946C963.902 512.116 964.027 517.745 963.694 524.251C962.111 553.941 951.239 600.103 951.239 600.103Z" fill="#2B478B"/>
<path d="M959.028 437.64L991.312 501.858C991.562 500.481 991.853 498.855 992.187 496.937C993.145 491.391 994.478 483.801 996.019 475.17C999.518 455.279 1004.06 429.883 1007.56 411.202L1005.72 410.618L985.772 404.155L981.648 391.019L966.776 387.099C966.776 387.099 963.444 393.604 960.486 424.296C959.903 428.341 959.403 432.802 959.028 437.64Z" fill="#233862"/>
<path d="M973.233 395.356L973.983 388.934C986.48 392.27 1019.93 379.635 1019.93 379.635C1019.93 379.635 1032.05 390.31 1030.47 415.872C1029.68 428.341 1028.26 481.425 1026.8 497.104C1026.26 502.775 1025.8 506.862 1025.59 508.446C1025.55 508.947 1025.72 509.405 1025.97 509.822C1028.14 513.534 1029.97 517.412 1031.43 521.332C1045.96 560.154 1029.18 607.943 1029.18 607.943L1024.8 606.191C1024.8 606.191 1015.26 552.982 1007.47 529.505C1006.14 525.502 1004.89 522.374 1003.73 520.498C1000.35 515.035 997.227 506.111 994.353 495.519C988.979 475.462 984.647 449.399 981.773 429.3C981.439 429.383 973.233 395.356 973.233 395.356Z" fill="#2B478B"/>
<path d="M883.339 374.047L884.255 380.344C884.255 380.344 884.672 380.344 885.38 380.302C887.671 380.135 893.211 379.843 899.46 379.176C908.874 378.259 920.08 376.591 924.537 373.839C931.327 369.669 942.449 356.992 949.739 344.273C949.947 343.981 950.114 343.648 950.239 343.356C954.03 336.601 956.654 329.929 956.862 324.591C957.029 321.338 956.654 318.503 955.988 316.084C955.113 312.873 953.655 310.33 952.155 308.411C951.947 308.12 951.739 307.786 951.447 307.536C948.948 304.575 946.531 303.324 946.531 303.324C945.282 302.824 943.949 303.407 942.533 304.95V304.992C941.408 306.201 940.158 307.994 938.95 310.288C938.908 310.33 938.867 310.371 938.867 310.455C938.617 310.913 938.367 311.455 938.034 311.998C937.95 312.081 937.867 312.248 937.825 312.373C937.242 313.582 936.701 314.792 936.117 316.126C929.744 330.012 922.954 351.07 917.289 357.367C914.873 360.078 903.709 365.374 894.836 369.293C888.546 371.962 883.339 374.047 883.339 374.047Z" fill="#FFB27D"/>
<path d="M949.281 317.544C953.196 319.378 957.945 320.629 963.694 320.921C985.23 322.089 990.104 303.199 990.979 290.689C987.896 289.563 985.147 289.688 983.606 289.771C982.064 289.855 980.481 290.022 979.19 290.188C976.566 288.812 971.817 282.14 969.109 270.923L968.193 271.34L952.655 278.638C952.655 278.638 954.321 283.683 955.529 288.52C956.487 292.315 957.154 295.985 956.571 296.986C955.363 297.486 954.613 297.778 954.613 297.778C954.446 298.237 951.072 306.868 949.281 317.544Z" fill="#FFB27D"/>
<path d="M943.907 331.68C944.074 332.097 944.24 332.514 944.449 332.973C949.906 344.732 959.986 393.396 959.986 393.396C958.57 402.153 1025.68 391.686 1025.84 383.722C1028.22 375.256 1017.47 361.704 1011.39 354.907C1010.64 354.031 1009.93 353.114 1009.35 352.155C1007.85 349.736 1006.89 346.984 1006.6 344.107C1005.39 332.806 1005.85 322.214 1005.77 315.792C1004.6 314.917 1003.43 314.083 1002.35 313.332C1000.73 312.123 999.268 311.038 998.227 309.913C997.06 308.662 996.311 307.411 996.227 305.993C996.186 304.909 996.186 303.824 996.311 302.698C996.352 302.198 996.436 301.656 996.519 301.156C997.352 295.693 999.643 290.731 999.643 290.731C993.853 288.395 983.605 289.771 983.605 289.771C983.605 289.771 983.605 290.355 983.605 291.273C983.647 295.026 983.606 304.658 982.397 306.493C980.898 308.745 953.405 318.711 951.947 315.625C950.53 312.581 954.446 298.403 954.571 297.861C945.365 301.489 942.074 304.533 942.074 304.533C947.656 308.119 939.617 320.296 943.907 331.68Z" fill="#F99746"/>
<path d="M962.444 230.14C962.486 229.223 963.194 219.132 978.523 218.631C978.523 218.631 970.983 219.549 969.692 222.843C969.692 222.843 974.816 218.756 978.981 220.049C983.147 221.383 985.605 228.681 985.646 231.1C985.688 233.518 983.355 241.274 980.689 241.942C979.69 242.192 978.523 242.108 977.482 241.942C978.19 243.026 978.898 244.277 979.523 245.611C985.646 258.163 979.315 270.423 974.149 269.088C970.817 268.213 969.9 273.884 969.9 273.884L937.659 247.78C937.7 247.78 949.531 223.26 962.444 230.14Z" fill="#2C3A64"/>
<path d="M952.655 278.679C952.655 278.679 954.321 283.725 955.529 288.562C964.61 286.018 967.36 276.469 968.193 271.34L952.655 278.679Z" fill="#ED985F"/>
<path d="M950.739 284.017C950.739 284.017 972.442 278.971 969.109 265.502C965.777 252.033 966.318 242.275 952.322 244.902C938.325 247.529 936.909 253.367 936.909 258.121C936.951 262.917 944.99 284.976 950.739 284.017Z" fill="#FFB27D"/>
<path d="M935.701 250.49C938.034 245.611 940.783 245.861 942.491 246.737C952.696 237.271 962.694 245.027 962.694 245.027C966.526 254.326 974.899 258.163 974.899 258.163C974.899 258.163 971.567 261.582 961.903 261.499C958.945 261.457 955.987 260.123 953.28 258.246C958.487 263.5 964.61 266.711 964.61 266.711C952.488 264.376 944.407 250.365 943.574 248.864C942.532 250.365 940.575 253.618 940.408 256.328C940.2 260.039 941.449 267.212 939.325 267.504C939.325 267.462 932.202 257.829 935.701 250.49Z" fill="#2C3A64"/>
<path d="M942.116 304.492C942.116 304.492 936.867 313.624 936.117 315.959C936.117 315.959 942.907 315.709 945.657 320.921C945.615 320.921 946.281 305.743 942.116 304.492Z" fill="#F99746"/>
<path d="M978.065 377.05C991.312 376.925 1002.52 363.163 1009.39 352.155C1007.89 349.736 1006.93 346.984 1006.64 344.107C1005.43 332.806 1005.89 322.214 1005.81 315.792C1004.64 314.917 1003.48 314.083 1002.39 313.332C1000.77 312.123 999.31 311.038 998.269 309.913C987.396 328.219 960.111 377.258 978.065 377.05Z" fill="#ED7D2B"/>
<path d="M928.036 384.264L929.869 390.894C929.869 390.894 932.16 390.477 935.784 389.81C936.867 389.601 937.492 389.435 937.492 389.435C940.408 388.851 943.866 388.1 947.656 387.266H947.698C954.155 385.723 961.445 383.847 967.526 381.762C971.817 380.26 975.566 378.634 978.107 377.05C978.357 376.883 978.565 376.758 978.815 376.549C984.897 372.129 992.062 359.16 997.685 345.274C998.477 343.356 999.185 341.438 999.893 339.561C1002.48 332.597 1004.56 325.759 1005.81 319.837C1006.6 316.293 1007.1 313.082 1007.22 310.455C1007.27 309.537 1007.35 308.62 1007.27 307.828C1007.18 292.774 999.685 290.731 999.685 290.731C999.518 290.689 999.393 290.647 999.185 290.564C997.894 290.355 996.561 291.231 995.144 292.941C993.395 295.067 991.52 298.528 989.604 302.74C986.647 309.412 983.522 318.086 980.648 326.718C979.023 331.43 977.482 336.142 975.941 340.52C975.066 343.147 974.191 345.649 973.358 347.943C971.734 352.28 970.317 355.824 969.026 358.076C968.193 359.536 965.818 361.537 962.653 363.831C957.154 367.834 949.114 372.629 942.116 376.591C939.2 378.259 936.451 379.76 934.201 381.011C930.452 382.971 928.036 384.264 928.036 384.264Z" fill="#FFB27D"/>
<path d="M989.604 302.74C999.56 299.988 1007.27 307.786 1007.27 307.786C1007.14 292.774 999.685 290.731 999.685 290.731C996.644 289.48 993.186 294.692 989.604 302.74Z" fill="#F99746"/>
<path d="M1003.85 611.612H1038.34C1038.34 611.612 1039.18 606.358 1037.38 602.355C1035.68 598.518 1032.97 596.767 1033.59 592.138C1031.39 594.39 1027.84 596.934 1022.85 596.266C1022.22 597.267 1018.89 602.563 1016.85 604.023C1014.6 605.649 1004.52 605.065 1003.85 611.612Z" fill="#233862"/>
<path d="M929.786 611.612H964.277C964.277 611.612 965.568 606.108 963.319 602.355C961.319 599.019 962.069 597.142 963.569 594.39C961.986 595.015 959.986 595.599 957.778 595.474C956.071 595.391 954.238 594.598 952.655 593.681C951.155 595.391 944.823 602.605 942.824 604.023C940.533 605.649 930.494 605.065 929.786 611.612Z" fill="#233862"/>
<path d="M925.953 415.038L917.747 395.022C916.664 392.395 913.831 391.061 911.165 391.77C908.458 386.641 904.709 382.512 900.46 379.593C896.002 376.507 890.962 374.839 886.047 374.839C883.422 374.839 880.84 375.34 878.34 376.382C866.676 381.178 861.469 395.898 865.76 410.368L865.135 410.618C865.135 410.618 863.136 410.493 859.803 410.493C849.264 410.493 825.27 411.911 808.441 423.587C808.441 423.587 807.4 424.713 807.358 426.422C807.316 427.006 807.441 427.632 807.733 428.299C807.733 428.299 834.768 410.785 859.72 428.799C861.261 429.883 862.761 430.926 864.177 431.885L866.427 437.348C870.134 446.438 880.59 450.817 889.671 447.106L912.54 437.723L917.289 435.763C925.37 432.427 929.286 423.086 925.953 415.038ZM881.589 398.817L872.258 402.653C869.717 403.696 868.384 406.448 869.051 409.033L868.051 409.45C864.26 396.273 868.884 382.971 879.298 378.718C880.756 378.134 882.256 377.717 883.797 377.55C888.588 376.924 893.586 378.217 898.085 381.011C902.334 383.68 906.167 387.683 908.874 392.729L907.5 393.313C906.167 391.019 903.292 389.977 900.751 391.019L891.42 394.855C890.712 393.062 888.963 391.978 887.13 391.978C886.546 391.978 885.963 392.103 885.422 392.312L884.13 392.854C881.756 393.771 880.631 396.44 881.589 398.817Z" fill="#C94C43"/>
<path d="M864.135 431.885C862.677 430.926 861.219 429.925 859.678 428.799C834.684 410.785 807.691 428.299 807.691 428.299C807.4 427.632 807.316 426.964 807.316 426.422C811.107 423.92 825.27 415.622 842.849 418.458C863.427 421.794 867.135 424.671 864.135 431.885Z" fill="#B23B38"/>
<path d="M917.289 435.763L912.54 437.723C919.705 433.803 910.832 417.29 905.667 406.406C900.501 395.523 892.67 400.485 892.67 400.485C890.879 396.815 887.046 397.024 887.046 397.024C886.838 393.521 884.172 392.812 884.172 392.812L885.463 392.27C886.047 392.062 886.63 391.937 887.171 391.937C889.004 391.937 890.712 393.021 891.462 394.814L900.793 390.977C903.334 389.935 906.208 390.977 907.541 393.271L908.916 392.687C906.167 387.641 902.376 383.597 898.127 380.969C893.628 378.176 888.629 376.883 883.839 377.508C884.589 376.883 885.38 376.049 886.13 374.881C891.087 374.84 896.086 376.549 900.543 379.635C904.792 382.554 908.541 386.682 911.249 391.811C913.915 391.061 916.747 392.437 917.83 395.064L926.037 415.08C929.286 423.086 925.37 432.427 917.289 435.763Z" fill="#B23B38"/>
<path d="M906.583 390.686C909.916 392.103 914.581 396.941 922.038 394.022C927.37 391.937 933.035 390.477 935.784 389.81C936.867 389.601 937.492 389.434 937.492 389.434L934.534 380.844C934.534 380.844 934.451 380.886 934.16 380.928C932.243 381.345 922.496 383.43 917.955 382.387C912.832 381.178 904.209 387.349 904.209 387.349C904.209 387.349 903.251 389.351 906.583 390.686Z" fill="#FFB27D"/>
<path d="M812.94 442.769C812.94 439.641 807.316 430.05 807.316 430.05C807.316 430.05 801.693 439.683 801.693 442.769C801.693 445.896 804.234 448.398 807.316 448.398C810.44 448.44 812.94 445.896 812.94 442.769Z" fill="#AFCDFB"/>
<path d="M945.157 52.5402L936.867 54.3333L936.659 54.375C935.659 54.5835 934.993 55.5426 935.076 56.5434L935.826 63.5907C935.826 63.7158 935.826 63.8409 935.826 63.9243C935.784 64.7166 935.243 65.4255 934.493 65.6757C930.077 67.2603 925.995 69.6789 922.538 72.8481C922.413 72.9732 922.246 73.0983 922.079 73.1817C921.455 73.4736 920.663 73.4319 920.08 73.0566L915.206 69.7623C914.54 69.3453 913.707 69.3036 913.082 69.6789C912.873 69.804 912.707 69.9291 912.54 70.1376L906.958 76.7679C906.292 77.5602 906.333 78.8112 907.083 79.5618L912.623 85.1079C913.165 85.65 913.332 86.484 913.082 87.1929C912.707 88.2354 912.374 89.3196 912.124 90.4038C911.624 92.4471 911.29 94.5321 911.166 96.5754C911.124 97.4094 910.541 98.16 909.749 98.4102L902.126 100.787L901.751 100.912C900.751 101.204 900.168 102.205 900.377 103.247L902.209 111.713C902.459 112.755 903.417 113.464 904.459 113.339L912.29 112.505C913.165 112.421 913.998 112.88 914.331 113.672C915.873 117.008 917.914 120.053 920.413 122.763C921.038 123.472 921.121 124.473 920.58 125.265L916.706 131.061C916.123 131.937 916.289 133.105 917.081 133.772L923.704 139.36C924.496 140.027 925.662 139.985 926.37 139.235L932.91 132.729C933.452 132.187 934.285 131.979 935.034 132.229C935.951 132.521 936.867 132.813 937.825 133.063C939.617 133.522 941.408 133.814 943.199 133.98C943.99 134.064 944.699 134.606 944.949 135.356L947.781 144.53C948.114 145.531 949.114 146.115 950.156 145.907L958.653 144.072C959.57 143.863 960.195 143.071 960.236 142.195C960.236 142.112 960.236 141.987 960.236 141.903L959.32 133.23C959.237 132.437 959.612 131.645 960.32 131.228C960.361 131.186 960.445 131.145 960.528 131.145C960.736 131.061 960.903 130.978 961.111 130.853C963.402 129.81 965.568 128.518 967.568 126.975C968.234 126.474 969.151 126.433 969.859 126.933L975.982 131.061C976.857 131.645 978.024 131.478 978.69 130.686L979.94 129.227L984.272 124.097C984.939 123.305 984.897 122.096 984.147 121.345L978.69 115.883C978.107 115.299 977.94 114.423 978.315 113.672C979.232 111.713 979.94 109.586 980.481 107.417C980.898 105.791 981.148 104.165 981.314 102.539L982.897 102.038L989.437 99.9948C990.27 99.7446 990.812 98.994 990.812 98.2017C990.812 98.0349 990.812 97.8681 990.77 97.7013L988.937 89.1945C988.729 88.1937 987.771 87.5265 986.73 87.6099L981.398 88.1937C980.481 88.2771 979.607 87.735 979.315 86.901C978.024 83.3565 976.149 80.0622 973.858 77.1432C973.316 76.4343 973.275 75.5169 973.775 74.808L978.648 67.302C979.19 66.468 979.023 65.3838 978.274 64.7166L971.567 59.0454C970.775 58.3782 969.609 58.4199 968.901 59.1705L962.111 65.9676C961.528 66.5514 960.653 66.7182 959.903 66.3846C958.279 65.6757 956.571 65.1336 954.779 64.6749C953.821 64.4247 952.863 64.2579 951.905 64.0911C951.155 63.966 950.531 63.4239 950.281 62.715L947.573 53.9163C947.198 52.9155 946.198 52.3317 945.157 52.5402ZM928.494 92.1969C929.286 89.9868 930.536 87.8601 932.244 85.8168C932.618 85.3581 933.035 84.9411 933.535 84.4824C935.701 82.6059 938.825 80.8962 941.283 80.3541C959.945 76.3926 972.358 96.5337 960.736 111.379C960.528 111.629 960.361 111.879 960.153 112.088C958.279 114.34 954.363 116.675 951.489 117.3C949.989 117.634 948.531 117.801 947.115 117.842C933.077 118.259 923.912 104.707 928.494 92.1969Z" fill="#DFEDFB"/>
<path d="M1071.42 81.2297L1058.42 82.3973L1058.13 82.439C1056.55 82.6058 1055.34 83.8985 1055.3 85.4831L1055.09 96.4085C1055.09 96.5753 1055.05 96.7838 1055.05 96.9506C1054.8 98.1182 1053.88 99.119 1052.71 99.3692C1045.63 100.954 1038.93 103.873 1033.01 108.085C1032.76 108.251 1032.51 108.376 1032.22 108.46C1031.18 108.793 1030.01 108.585 1029.18 107.876L1022.3 101.871C1021.39 101.079 1020.14 100.912 1019.06 101.371C1018.72 101.496 1018.43 101.704 1018.14 101.955L1008.35 111.004C1007.14 112.129 1006.97 114.006 1008.02 115.299L1015.47 124.848C1016.22 125.807 1016.31 127.058 1015.76 128.142C1015.01 129.685 1014.31 131.27 1013.68 132.896C1012.52 135.94 1011.64 139.068 1011.02 142.153C1010.77 143.446 1009.77 144.447 1008.47 144.655L996.352 146.824L995.728 146.949C994.186 147.199 993.062 148.659 993.186 150.243L994.395 163.546C994.561 165.172 995.894 166.423 997.519 166.465L1009.64 166.715C1010.97 166.756 1012.18 167.632 1012.56 168.883C1014.26 174.262 1016.81 179.35 1020.1 183.937C1020.93 185.104 1020.85 186.689 1019.89 187.773L1012.81 195.946C1011.72 197.197 1011.77 199.032 1012.89 200.2L1021.97 210.041C1023.05 211.209 1024.85 211.334 1026.05 210.375L1037.3 201.618C1038.26 200.867 1039.55 200.742 1040.63 201.242C1041.97 201.91 1043.34 202.493 1044.76 203.035C1047.42 204.078 1050.13 204.87 1052.8 205.454C1054 205.704 1054.96 206.663 1055.17 207.914L1057.75 222.509C1058.05 224.136 1059.5 225.22 1061.13 225.095L1074.5 223.885C1075.92 223.76 1077.04 222.676 1077.29 221.3C1077.33 221.175 1077.33 221.008 1077.33 220.841L1077.58 207.372C1077.58 206.121 1078.33 204.995 1079.5 204.537C1079.58 204.495 1079.71 204.453 1079.79 204.412C1080.12 204.328 1080.41 204.245 1080.71 204.12C1084.41 202.952 1087.95 201.367 1091.37 199.449C1092.5 198.782 1093.91 198.949 1094.91 199.825L1103.53 207.289C1104.74 208.373 1106.57 208.331 1107.78 207.205L1109.95 205.204L1117.53 198.157C1118.74 197.072 1118.86 195.238 1117.86 193.945L1110.53 184.521C1109.74 183.52 1109.7 182.144 1110.37 181.06C1112.12 178.224 1113.66 175.138 1114.91 171.886C1115.82 169.467 1116.57 167.007 1117.16 164.546L1119.7 164.088L1130.11 162.211C1131.4 162.003 1132.4 160.96 1132.61 159.709C1132.65 159.459 1132.65 159.167 1132.65 158.917L1131.49 145.489C1131.32 143.905 1129.99 142.696 1128.44 142.654L1120.15 142.529C1118.74 142.487 1117.53 141.528 1117.2 140.152C1115.86 134.481 1113.7 129.06 1110.7 124.139C1109.99 122.971 1110.12 121.512 1110.99 120.511L1119.95 110.211C1120.95 109.044 1120.9 107.334 1119.86 106.208L1110.66 96.2417C1109.57 95.0741 1107.78 94.9073 1106.53 95.9081L1094.83 104.999C1093.83 105.791 1092.45 105.874 1091.33 105.249C1088.95 103.873 1086.41 102.664 1083.79 101.663C1082.37 101.121 1080.91 100.62 1079.5 100.203C1078.37 99.8696 1077.5 98.9105 1077.29 97.7846L1074.83 83.8151C1074.5 82.2305 1073.04 81.1046 1071.42 81.2297ZM1038.34 138.817C1040.01 135.607 1042.3 132.562 1045.3 129.727C1045.92 129.143 1046.71 128.518 1047.55 127.934C1051.21 125.432 1056.34 123.43 1060.17 123.097C1089.54 120.636 1104.66 153.871 1084.04 174.346C1083.71 174.679 1083.37 175.013 1083 175.347C1079.66 178.432 1073.25 181.268 1068.75 181.685C1066.38 181.894 1064.13 181.894 1061.96 181.685C1040.38 179.6 1028.89 157.124 1038.34 138.817Z" fill="#CDE3FD"/>
</svg>
