<svg width="60" height="60" viewBox="0 0 60 60" fill="none" xmlns="http://www.w3.org/2000/svg">
<circle cx="30" cy="30" r="29.5" stroke="white"/>
<path d="M17.9505 28.625H18.765V29.7969C19.0892 29.3516 19.4623 29.0176 19.8841 28.7949C20.306 28.5723 20.7767 28.4609 21.2963 28.4609C22.2025 28.4609 22.9779 28.7871 23.6224 29.4395C24.267 30.0918 24.5892 30.877 24.5892 31.7949C24.5892 32.7324 24.2689 33.5293 23.6283 34.1855C22.9916 34.8379 22.222 35.1641 21.3197 35.1641C20.8119 35.1641 20.3451 35.0586 19.9193 34.8477C19.4935 34.6367 19.1088 34.3223 18.765 33.9043V37.332H17.9505V28.625ZM21.2318 29.252C20.5209 29.252 19.9213 29.5 19.433 29.9961C18.9486 30.4922 18.7064 31.1094 18.7064 31.8477C18.7064 32.332 18.8138 32.7676 19.0287 33.1543C19.2474 33.541 19.558 33.8477 19.9603 34.0742C20.3666 34.3008 20.7943 34.4141 21.2435 34.4141C21.6849 34.4141 22.099 34.3008 22.4857 34.0742C22.8763 33.8438 23.1869 33.5234 23.4173 33.1133C23.6478 32.7031 23.763 32.2734 23.763 31.8242C23.763 31.3711 23.6478 30.9414 23.4173 30.5352C23.1908 30.1289 22.8841 29.8145 22.4974 29.5918C22.1107 29.3652 21.6888 29.252 21.2318 29.252ZM26.2472 26.1641H27.0675V35H26.2472V26.1641ZM35.3641 28.625V35H34.5555V33.9043C34.2118 34.3223 33.8251 34.6367 33.3954 34.8477C32.9696 35.0586 32.5028 35.1641 31.995 35.1641C31.0927 35.1641 30.3212 34.8379 29.6805 34.1855C29.0438 33.5293 28.7255 32.7324 28.7255 31.7949C28.7255 30.877 29.0477 30.0918 29.6923 29.4395C30.3368 28.7871 31.1122 28.4609 32.0184 28.4609C32.5419 28.4609 33.0145 28.5723 33.4364 28.7949C33.8622 29.0176 34.2352 29.3516 34.5555 29.7969V28.625H35.3641ZM32.0829 29.252C31.6259 29.252 31.204 29.3652 30.8173 29.5918C30.4305 29.8145 30.122 30.1289 29.8915 30.5352C29.6649 30.9414 29.5516 31.3711 29.5516 31.8242C29.5516 32.2734 29.6669 32.7031 29.8973 33.1133C30.1278 33.5234 30.4364 33.8438 30.8231 34.0742C31.2137 34.3008 31.6317 34.4141 32.077 34.4141C32.5262 34.4141 32.952 34.3008 33.3544 34.0742C33.7567 33.8477 34.0653 33.541 34.2802 33.1543C34.4989 32.7676 34.6083 32.332 34.6083 31.8477C34.6083 31.1094 34.3641 30.4922 33.8759 29.9961C33.3915 29.5 32.7938 29.252 32.0829 29.252ZM36.7702 28.625H37.6373L39.8288 33.5352L41.9557 28.625H42.8288L39.026 37.332H38.1588L39.3893 34.5195L36.7702 28.625Z" fill="white"/>
</svg>
