<svg width="100" height="100" viewBox="0 0 100 100" fill="none" xmlns="http://www.w3.org/2000/svg">
<circle cx="50" cy="50" r="49.5" stroke="white"/>
<path d="M36.4423 47.5625H37.3925V48.9297C37.7708 48.4102 38.206 48.0205 38.6982 47.7607C39.1904 47.501 39.7395 47.3711 40.3456 47.3711C41.4029 47.3711 42.3075 47.7516 43.0595 48.5127C43.8114 49.2738 44.1874 50.1898 44.1874 51.2607C44.1874 52.3545 43.8137 53.2842 43.0663 54.0498C42.3235 54.8109 41.4257 55.1914 40.373 55.1914C39.7805 55.1914 39.2359 55.0684 38.7392 54.8223C38.2424 54.5762 37.7935 54.2093 37.3925 53.7217V57.7207H36.4423V47.5625ZM40.2704 48.2939C39.441 48.2939 38.7415 48.5833 38.1718 49.1621C37.6067 49.7409 37.3241 50.4609 37.3241 51.3223C37.3241 51.8874 37.4495 52.3955 37.7001 52.8467C37.9553 53.2979 38.3176 53.6556 38.787 53.9199C39.261 54.1842 39.76 54.3164 40.2841 54.3164C40.7991 54.3164 41.2821 54.1842 41.7333 53.9199C42.189 53.651 42.5514 53.2773 42.8202 52.7988C43.0891 52.3203 43.2236 51.819 43.2236 51.2949C43.2236 50.7663 43.0891 50.265 42.8202 49.791C42.5559 49.3171 42.1982 48.9502 41.747 48.6904C41.2958 48.4261 40.8036 48.2939 40.2704 48.2939ZM46.1217 44.6914H47.0787V55H46.1217V44.6914ZM56.7582 47.5625V55H55.8148V53.7217C55.4138 54.2093 54.9626 54.5762 54.4613 54.8223C53.9645 55.0684 53.4199 55.1914 52.8275 55.1914C51.7748 55.1914 50.8747 54.8109 50.1273 54.0498C49.3845 53.2842 49.013 52.3545 49.013 51.2607C49.013 50.1898 49.389 49.2738 50.141 48.5127C50.8929 47.7516 51.7976 47.3711 52.8548 47.3711C53.4655 47.3711 54.017 47.501 54.5091 47.7607C55.0059 48.0205 55.4411 48.4102 55.8148 48.9297V47.5625H56.7582ZM52.93 48.2939C52.3968 48.2939 51.9046 48.4261 51.4535 48.6904C51.0023 48.9502 50.6423 49.3171 50.3734 49.791C50.1091 50.265 49.9769 50.7663 49.9769 51.2949C49.9769 51.819 50.1114 52.3203 50.3802 52.7988C50.6491 53.2773 51.0091 53.651 51.4603 53.9199C51.916 54.1842 52.4037 54.3164 52.9232 54.3164C53.4473 54.3164 53.944 54.1842 54.4134 53.9199C54.8828 53.6556 55.2429 53.2979 55.4935 52.8467C55.7487 52.3955 55.8763 51.8874 55.8763 51.3223C55.8763 50.4609 55.5915 49.7409 55.0218 49.1621C54.4567 48.5833 53.7595 48.2939 52.93 48.2939ZM58.3985 47.5625H59.4102L61.9669 53.291L64.4483 47.5625H65.4669L61.0304 57.7207H60.0186L61.4542 54.4395L58.3985 47.5625Z" fill="white"/>
</svg>
